# xmcd
#
# Track frame offsets:
#	150
#	25259
#	41509
#	72263
#	92538
#	108490
#	126999
#	154055
#	172186
#	192161
#	217772
#	241046
#	263519
#	282548
#	302337
#	339976
#
# Disc length: 4782 seconds
#
# Revision: 1
# Processed by: cddbd v1.5.2PL0 Copyright (c) Steve Scherf et al.
# Submitted via: EasyCDDAExtractor 8.2.3.1
#
DISCID=d512ac10
DTITLE=Various Artist - Akella Presents - Modern Electric Blues  vol.25  CD1
DYEAR=2011
DGENRE=Blues
TTITLE0=MILLER ANDERSON - City Blues
TTITLE1=BOWES and MORLEY - Why did you do it
TTITLE2=SNOWY WHITE - On The Edge Of Something
TTITLE3=KAL DAVID - Heart Of Stone
TTITLE4=JOHN CAMPBELLJOHN - Do The Right Thing
TTITLE5=DAVID-JACOBS STRAIN - Rainbow Junkies
TTITLE6=DENNY ILETT - Angel Eyes
TTITLE7=MATT WOODS - She Used To Be Your Woman
TTITLE8=KILLING FLOOR - Iron Ewe
TTITLE9=ROBBEN FORD - Moonchild Blues
TTITLE10=TY CURTIS BAND - I'm Going Away
TTITLE11=DUKE ROBILLARD - You Mean Everything To Me
TTITLE12=GHOST MOUNTAIN  R and B - Tennessee Line
TTITLE13=JOEL JOHNSON BAND - The Power of a Woman
TTITLE14=STUDEBAKER JOHN and The HAWKS - Down at the Bottom
TTITLE15=JOHN CAMPBELL - Voodoo Edge
EXTD=
EXTT0=
EXTT1=
EXTT2=
EXTT3=
EXTT4=
EXTT5=
EXTT6=
EXTT7=
EXTT8=
EXTT9=
EXTT10=
EXTT11=
EXTT12=
EXTT13=
EXTT14=
EXTT15=
PLAYORDER=
